<?xml version="1.0" encoding="UTF-8"?>
<svg xmlns="http://www.w3.org/2000/svg" viewBox="0 0 2048 2048">
  <defs>
    <style>
      .cls-1 {
        fill: #fff;
      }

      .cls-2 {
        fill: #1b55aa;
      }
    </style>
  </defs>
  <rect class="cls-2" width="2048" height="2048"/>
  <g id="Layer_1" data-name="Layer 1">
    <g>
      <path class="cls-1" d="M1531.52,903.61h-730.13s.18-54.98.18-54.98l-270.91.09.38-63.58c.69-113.84-30.93-218.6-125.02-287.82v174.65s17.28,16.51,17.28,16.51l-.37,79.25-91.82-.03c-25.5,0-42.99,18.76-42.95,44.12l.45,339.89c.03,21.72,12.74,40.11,15.93,61.27l118.21,397.34,108.09,75.46-.26-403.79c-12.13-5.35-24.68-14.02-24.69-27.98l-.06-135.21,295.1-.06.79-53.74,729.85-.05.55,53.84,196.37.04.18-270.15h-197.11s-.06,54.92-.06,54.92Z"/>
      <path class="cls-1" d="M828.5,1252.23c0,15.95-12.01,25.31-25.84,30.73l.1,403.23,108.5-76.89,63.02-213.48,58.38-195.78,471.57-.15.03-107.9h-675.82s.07,160.24.07,160.24Z"/>
      <polygon class="cls-1" points="1504.35 875.8 1504.22 767.44 828.36 767.41 828.39 875.84 1504.35 875.8"/>
      <path class="cls-1" d="M801.83,821.33l-1.23-53.81-111.68.07-.17-80.03,16.87-13.43-.33-176.02c-98.47,76.28-130.35,202.57-118.02,323.33l214.55-.11Z"/>
      <path class="cls-1" d="M1395.23,1300.61c47.06,4.97,88.61-26.21,100.16-73.46l-181.32.13c9.58,40.07,41.81,69.16,81.16,73.32Z"/>
      <path class="cls-1" d="M1127.51,713.48l24.65.93.4,26.55,26.54-.24.38-26.32,24.95-.96c16.83-.64,29.26-17.55,29.19-32.42-.07-14.62-9.8-33.98-27.47-33.99l-80.57-.09c-16.95-.02-27.56,19.89-27.33,33.99.25,15.22,12.3,31.9,29.26,32.54Z"/>
      <path class="cls-1" d="M1931.68,976.71c-1.12-8.39-9.18-20.04-20.21-20.05l-155.77-.1-.06,46.98,158.71-.02c13.11-4.71,18.93-14.88,17.34-26.82Z"/>
    </g>
  </g>
</svg>
